<?xml version="1.0" standalone="no"?>
<!DOCTYPE svg PUBLIC "-//W3C//DTD SVG 20010904//EN"
 "http://www.w3.org/TR/2001/REC-SVG-20010904/DTD/svg10.dtd">
<svg version="1.0" xmlns="http://www.w3.org/2000/svg"
 width="256.000000pt" height="256.000000pt" viewBox="0 0 256.000000 256.000000"
 preserveAspectRatio="xMidYMid meet">

<g transform="translate(0.000000,256.000000) scale(0.100000,-0.100000)"
fill="#000000" stroke="none">
<path d="M823 2200 c-13 -5 -23 -12 -23 -16 0 -3 26 -36 58 -72 71 -81 192
-245 192 -260 0 -6 -18 -29 -40 -51 -83 -83 -134 -156 -168 -240 -50 -120 -53
-219 -12 -331 15 -43 42 -99 60 -125 25 -36 30 -52 25 -75 -4 -18 -13 -30 -23
-30 -12 0 -13 -3 -4 -12 27 -27 -5 -61 -35 -37 -11 10 -15 8 -20 -9 -3 -12
-12 -22 -19 -22 -8 0 -14 -4 -14 -10 0 -5 7 -10 16 -10 19 0 16 -44 -3 -46 -7
-1 -18 -2 -23 -3 -6 0 -8 -12 -4 -26 3 -14 2 -25 -4 -25 -17 0 -23 44 -7 53
21 11 20 51 -1 43 -9 -3 -18 -6 -20 -6 -2 0 -4 -5 -4 -11 0 -18 -43 -54 -64
-54 -11 0 -21 -6 -24 -13 -3 -9 7 -11 35 -8 l38 4 -30 -13 c-16 -8 -40 -14
-51 -15 -23 0 -37 -13 -47 -43 -5 -14 -3 -16 12 -8 10 6 21 18 25 26 5 13 10
14 27 4 12 -6 17 -14 12 -18 -5 -3 -12 -14 -16 -24 -4 -10 -12 -17 -19 -16
-24 3 -38 -1 -38 -11 0 -5 11 -10 24 -10 31 0 93 59 74 71 -7 4 -9 11 -4 16 4
4 12 0 17 -10 12 -20 31 -13 22 8 -3 10 1 15 14 15 19 0 67 35 129 95 17 17
53 45 79 64 39 28 51 32 64 23 71 -52 185 -83 321 -88 102 -4 128 -1 228 24
l112 29 36 -44 c27 -33 34 -47 25 -56 -14 -14 -15 -30 -1 -22 6 3 10 1 10 -4
0 -6 -5 -11 -11 -11 -5 0 -7 -5 -4 -11 4 -6 13 -8 20 -5 14 5 74 -53 102 -100
10 -17 33 -56 51 -87 18 -30 40 -61 47 -67 8 -7 15 -18 15 -25 0 -6 14 -31 30
-53 17 -23 30 -45 30 -48 0 -4 14 -22 30 -41 17 -19 28 -38 25 -43 -6 -9 33
-35 41 -27 3 3 -2 12 -11 20 -21 21 -19 34 7 40 29 8 35 1 20 -24 -10 -16 -10
-20 3 -25 20 -8 19 -23 -2 -46 -10 -12 -12 -18 -4 -18 7 0 9 -4 6 -10 -3 -5
-1 -10 4 -10 6 0 11 11 11 25 0 14 4 25 9 25 19 0 21 36 4 67 -10 18 -21 33
-25 33 -5 0 -8 7 -8 16 0 11 -5 14 -16 10 -12 -5 -15 -2 -10 10 4 11 -10 43
-36 87 -24 38 -48 78 -54 89 -7 11 -17 25 -23 31 -6 6 -11 18 -11 27 0 9 -9
25 -21 36 -12 10 -34 45 -50 76 -16 31 -33 59 -38 63 -9 5 -51 90 -51 101 0 2
7 4 16 4 8 0 13 4 10 8 -3 5 8 23 25 41 16 19 27 36 24 40 -4 3 -12 -2 -19
-12 -16 -21 -26 -22 -26 -2 0 21 -10 19 -37 -7 -22 -21 -42 -20 -28 1 11 19
88 51 109 46 12 -3 15 -2 9 1 -20 9 -15 34 7 34 26 0 27 37 3 57 -13 11 -14
13 -3 10 25 -6 52 34 46 68 -2 16 -2 23 1 16 4 -9 14 10 25 44 12 38 15 61 8
63 -18 6 -11 22 10 22 13 0 18 5 14 15 -4 8 1 46 10 83 13 50 14 75 7 95 -6
15 -8 34 -5 42 4 8 2 21 -3 28 -6 6 -13 28 -16 48 -3 19 -16 58 -30 87 l-25
51 70 63 c39 35 81 70 93 78 12 8 57 41 98 73 74 56 76 58 65 85 -15 35 -28
51 -48 62 -19 10 -83 -34 -190 -130 -106 -96 -147 -130 -157 -130 -6 0 -18 10
-29 21 -33 36 -96 75 -164 100 -55 20 -84 24 -186 24 -99 0 -125 -3 -148 -18
-15 -10 -34 -16 -42 -13 -8 3 -14 1 -14 -4 0 -6 -7 -10 -16 -10 -17 0 -100
-44 -126 -67 -13 -12 -20 -12 -36 -2 -12 7 -23 20 -26 29 -5 13 -23 37 -89
120 -7 8 -26 33 -42 55 -62 84 -98 101 -162 75z m437 -259 c0 -5 -7 -12 -16
-15 -14 -5 -15 -4 -4 9 14 17 20 19 20 6z m17 -13 c-3 -8 -6 -5 -6 6 -1 11 2
17 5 13 3 -3 4 -12 1 -19z m403 3 c69 -18 149 -62 157 -87 4 -12 -114 -134
-131 -135 -6 0 -2 -4 9 -9 18 -8 17 -9 -7 -9 -16 -1 -28 -5 -28 -11 0 -5 -7
-10 -15 -10 -23 0 -105 -80 -105 -101 0 -11 -5 -19 -11 -19 -5 0 -7 6 -3 13 5
8 2 7 -10 -2 -9 -8 -14 -21 -12 -28 4 -10 1 -13 -13 -8 -14 4 -18 1 -17 -11 1
-13 -7 -18 -28 -18 -31 0 -25 -8 -206 252 -60 86 -60 88 39 133 150 68 257 82
381 50z m-524 -213 c16 -24 32 -44 37 -46 4 -2 7 -8 7 -14 0 -8 29 -49 133
-185 27 -36 35 -63 18 -63 -5 0 -7 -9 -4 -20 4 -15 1 -19 -9 -15 -8 3 -27 -6
-42 -20 -18 -16 -22 -25 -12 -25 8 0 16 6 19 13 3 8 11 6 26 -9 l22 -20 -36 2
c-26 2 -42 -3 -62 -22 -20 -18 -28 -21 -35 -12 -7 12 -12 4 -9 -14 0 -4 -8 -9
-18 -13 -11 -3 -22 -12 -25 -20 -3 -8 -12 -15 -21 -15 -20 0 -19 -16 1 -24 23
-9 36 -7 29 4 -3 6 -1 10 4 10 14 0 14 -37 1 -45 -5 -3 -10 -1 -10 5 0 7 -7 5
-16 -4 -8 -9 -12 -20 -9 -26 3 -5 2 -10 -4 -10 -19 0 -22 20 -7 36 22 21 20
24 -12 24 -33 0 -61 -35 -42 -54 6 -6 15 -11 21 -11 5 0 9 -3 9 -7 0 -5 0 -12
0 -18 0 -5 -7 -10 -15 -10 -8 0 -15 9 -15 19 0 26 -27 35 -39 12 -6 -11 -22
-18 -41 -19 -26 -1 -34 6 -60 51 -17 29 -35 78 -42 109 -6 31 -15 55 -20 52
-4 -3 -8 -1 -8 5 0 5 5 11 10 13 6 2 12 26 15 53 2 28 5 52 6 55 1 3 2 10 3
15 7 35 20 65 28 65 5 0 6 10 3 21 -5 14 -3 19 3 15 6 -3 23 16 39 44 15 27
31 50 36 50 4 0 7 6 7 13 0 14 84 97 98 97 5 0 22 -19 38 -42z m777 -16 c37
-93 41 -188 12 -322 -20 -96 -23 -120 -14 -120 5 0 9 -5 9 -11 0 -5 -4 -8 -9
-5 -5 3 -11 -1 -15 -9 -3 -8 0 -15 7 -16 9 0 9 -2 -1 -6 -19 -8 -44 -62 -37
-83 4 -13 0 -20 -17 -26 -13 -4 -24 -2 -26 5 -2 6 -12 16 -22 21 -14 7 -26 3
-55 -20 -21 -16 -41 -28 -45 -25 -10 6 -197 286 -205 306 -4 10 10 29 40 53
25 21 42 42 39 47 -3 5 4 9 16 9 11 0 23 7 26 15 4 8 10 15 15 15 4 0 21 11
36 25 15 14 60 51 98 82 39 32 74 63 78 70 4 7 15 13 22 13 8 0 15 5 15 10 0
23 19 7 33 -28z m-161 -24 c-9 -9 -15 -9 -24 0 -9 9 -7 12 12 12 19 0 21 -3
12 -12z m-299 -208 c3 -11 1 -20 -4 -20 -5 0 -9 9 -9 20 0 11 2 20 4 20 2 0 6
-9 9 -20z m63 -5 c-1 -5 -12 -8 -22 -7 -32 6 -35 17 -3 17 16 0 27 -4 25 -10z
m-156 -135 c0 -5 -2 -10 -4 -10 -3 0 -8 5 -11 10 -3 6 -1 10 4 10 6 0 11 -4
11 -10z m56 -15 c4 -8 13 -15 21 -15 8 0 12 -4 9 -9 -3 -5 3 -20 14 -34 11
-14 20 -28 20 -31 0 -13 83 -121 91 -119 5 2 9 -7 9 -20 0 -13 5 -28 11 -34
18 -18 3 -30 -51 -44 -27 -7 -46 -17 -43 -22 3 -5 -3 -6 -14 -3 -11 3 -43 2
-72 -4 -102 -19 -351 16 -351 50 0 18 5 25 19 27 8 1 30 18 50 39 20 20 52 49
71 63 44 33 80 64 144 123 56 52 64 55 72 33z m-101 -25 c-3 -5 -12 -10 -20
-10 -8 0 -17 5 -20 10 -4 6 5 10 20 10 15 0 24 -4 20 -10z m240 -80 c3 -5 1
-10 -4 -10 -6 0 -11 5 -11 10 0 6 2 10 4 10 3 0 8 -4 11 -10z m-335 -4 c0 -3
-4 -8 -10 -11 -5 -3 -10 -1 -10 4 0 6 5 11 10 11 6 0 10 -2 10 -4z m620 -251
c0 -8 -4 -15 -10 -15 -5 0 -10 7 -10 15 0 8 5 15 10 15 6 0 10 -7 10 -15z
m-985 -60 c-34 -32 -40 -32 -18 3 21 33 37 45 41 31 2 -5 -8 -21 -23 -34z
m915 5 c0 -5 -4 -10 -10 -10 -5 0 -10 5 -10 10 0 6 5 10 10 10 6 0 10 -4 10
-10z m105 -180 c-3 -5 -10 -10 -16 -10 -5 0 -9 5 -9 10 0 6 7 10 16 10 8 0 12
-4 9 -10z m25 -44 c0 -8 -4 -17 -9 -20 -10 -7 -23 19 -14 28 11 11 23 6 23 -8z
m40 -71 c0 -8 -4 -15 -10 -15 -5 0 -10 7 -10 15 0 8 5 15 10 15 6 0 10 -7 10
-15z m40 -80 c0 -8 -4 -15 -10 -15 -5 0 -10 7 -10 15 0 8 5 15 10 15 6 0 10
-7 10 -15z m47 -22 c3 -7 -3 -9 -16 -6 -12 3 -21 10 -21 15 0 13 32 6 37 -9z
m29 -32 c-3 -4 -22 -8 -43 -9 -24 -1 -33 1 -25 6 16 11 74 14 68 3z m4 -41 c0
-5 -4 -10 -10 -10 -5 0 -10 5 -10 10 0 6 5 10 10 10 6 0 10 -4 10 -10z m10
-53 c0 -5 -4 -5 -10 -2 -5 3 -10 14 -10 23 0 15 2 15 10 2 5 -8 10 -19 10 -23z"/>
<path d="M560 690 c-19 -16 -21 -22 -10 -35 7 -8 16 -12 21 -9 5 3 9 0 9 -5 0
-6 5 -11 10 -11 10 0 8 65 -2 75 -3 3 -15 -4 -28 -15z"/>
<path d="M617 663 c-4 -3 -7 -11 -7 -17 0 -6 5 -5 12 2 6 6 9 14 7 17 -3 3 -9
2 -12 -2z"/>
<path d="M483 636 c-10 -13 -33 -31 -51 -40 -17 -9 -38 -29 -47 -45 -8 -16
-20 -31 -26 -33 -7 -2 -9 -12 -4 -27 4 -13 12 -20 21 -17 7 3 16 1 19 -4 4 -6
2 -10 -3 -10 -6 0 -13 -8 -16 -17 -5 -13 0 -11 18 6 15 14 26 33 26 43 0 10 5
18 12 18 9 0 9 3 0 12 -17 17 -15 31 4 24 22 -8 47 17 31 33 -8 8 -6 11 10 11
13 0 20 6 19 16 0 9 5 19 12 21 7 3 10 -1 6 -10 -5 -13 29 -31 39 -20 8 8 -5
43 -14 37 -5 -3 -9 2 -9 10 0 24 -26 19 -47 -8z m-83 -125 c0 -12 -20 -25 -27
-18 -7 7 6 27 18 27 5 0 9 -4 9 -9z"/>
<path d="M335 480 c-3 -5 -1 -10 4 -10 6 0 11 5 11 10 0 6 -2 10 -4 10 -3 0
-8 -4 -11 -10z"/>
<path d="M330 436 c0 -8 -6 -16 -12 -19 -7 -2 -10 -7 -7 -11 9 -10 39 5 39 19
0 8 -4 17 -10 20 -5 3 -10 0 -10 -9z"/>
<path d="M250 395 c-14 -16 -10 -18 14 -9 9 3 16 10 16 15 0 14 -16 11 -30 -6z"/>
<path d="M2220 240 c0 -5 5 -10 11 -10 5 0 7 5 4 10 -3 6 -8 10 -11 10 -2 0
-4 -4 -4 -10z"/>
<path d="M2190 230 c0 -5 5 -10 10 -10 6 0 10 5 10 10 0 6 -4 10 -10 10 -5 0
-10 -4 -10 -10z"/>
<path d="M2177 195 c-4 -8 -2 -17 3 -20 6 -4 10 3 10 14 0 25 -6 27 -13 6z"/>
</g>
</svg>
