<?xml version="1.0" standalone="no"?>
<!DOCTYPE svg PUBLIC "-//W3C//DTD SVG 20010904//EN"
 "http://www.w3.org/TR/2001/REC-SVG-20010904/DTD/svg10.dtd">
<svg version="1.0" xmlns="http://www.w3.org/2000/svg"
 width="500.000000pt" height="500.000000pt" viewBox="0 0 500.000000 500.000000"
 preserveAspectRatio="xMidYMid meet">

<g transform="translate(0.000000,500.000000) scale(0.100000,-0.100000)"
fill="#000000" stroke="none">
<path d="M1615 4412 c-16 -2 -35 -8 -42 -13 -7 -7 -13 -6 -18 0 -4 7 -14 5
-29 -5 -30 -19 -24 -45 20 -90 19 -18 34 -38 34 -43 0 -6 9 -15 20 -21 11 -6
20 -15 20 -20 0 -5 17 -26 38 -47 21 -21 41 -46 45 -55 3 -10 11 -18 16 -18 5
0 18 -17 29 -39 11 -21 39 -58 61 -82 22 -24 41 -48 41 -54 0 -5 10 -22 23
-36 12 -15 32 -39 44 -55 12 -16 29 -38 38 -49 61 -79 80 -127 64 -157 -8 -15
-13 -17 -24 -8 -11 9 -15 7 -21 -13 -3 -16 -17 -29 -35 -36 -19 -6 -27 -15
-23 -24 3 -8 -2 -17 -10 -20 -9 -4 -16 -13 -16 -22 0 -8 -9 -15 -20 -15 -11 0
-20 -5 -20 -10 0 -6 -15 -25 -32 -43 -18 -17 -40 -45 -48 -61 -8 -16 -27 -38
-42 -49 -16 -12 -28 -25 -28 -29 0 -5 -9 -18 -20 -30 -11 -12 -20 -28 -20 -35
0 -7 -4 -13 -8 -13 -9 0 -24 -40 -42 -107 -6 -24 -15 -43 -20 -43 -6 0 -10 -6
-10 -13 0 -7 -10 -33 -22 -58 -12 -24 -25 -62 -29 -84 -4 -22 -15 -69 -24
-105 -27 -107 -1 -313 56 -437 10 -24 19 -52 19 -63 0 -11 5 -20 10 -20 6 0
10 -6 10 -14 0 -21 60 -128 82 -147 10 -9 18 -23 18 -31 0 -8 14 -27 30 -43
32 -30 42 -89 18 -97 -7 -3 -13 -11 -14 -19 -3 -48 -4 -49 -34 -49 -38 0 -39
-15 -2 -25 15 -4 21 -10 15 -12 -15 -6 -17 -33 -3 -33 16 0 12 -22 -7 -36 -16
-11 -17 -13 -2 -19 15 -6 15 -9 2 -36 -8 -16 -27 -36 -43 -44 -15 -8 -31 -26
-34 -40 -6 -25 -20 -33 -31 -16 -3 5 2 16 10 24 8 9 15 18 15 21 0 12 -42 6
-56 -8 -18 -19 -18 -26 1 -26 20 0 19 -13 -3 -33 -11 -10 -26 -14 -40 -10 -12
3 -29 -1 -38 -8 -14 -12 -16 -9 -13 30 3 34 0 46 -15 55 -14 8 -20 8 -23 -1
-3 -7 -9 -13 -15 -13 -5 0 -17 -7 -25 -16 -13 -12 -13 -18 -4 -24 9 -5 10 -10
2 -14 -6 -4 -11 -14 -11 -22 0 -20 40 -18 56 4 12 16 13 15 14 -7 0 -13 10
-33 23 -44 15 -13 18 -21 10 -24 -7 -3 -13 -13 -13 -24 0 -12 -7 -19 -19 -19
-15 0 -19 7 -19 34 0 44 -8 56 -37 56 -13 0 -25 5 -27 11 -2 7 -17 8 -42 4
-30 -6 -35 -10 -22 -17 21 -12 21 -48 0 -48 -9 0 -18 9 -21 20 -3 11 -8 20
-11 20 -17 0 -72 -48 -72 -62 0 -23 36 -24 44 -1 5 11 10 13 17 6 17 -17 -1
-43 -31 -43 -16 0 -31 -4 -35 -10 -3 -5 -12 -7 -20 -4 -8 4 -18 -1 -21 -10 -3
-9 -13 -16 -20 -16 -8 0 -17 -13 -20 -29 -4 -16 -15 -39 -26 -51 -11 -12 -17
-24 -13 -28 4 -4 10 -1 12 6 3 6 11 12 19 12 20 0 54 37 54 59 0 27 35 36 62
17 12 -9 30 -16 40 -16 11 0 18 -8 18 -20 0 -11 -4 -20 -10 -20 -5 0 -10 5
-10 10 0 14 -27 13 -36 -2 -5 -8 -2 -9 10 -5 15 6 17 4 11 -10 -4 -10 -10 -26
-12 -35 -3 -10 -11 -18 -18 -18 -8 0 -20 -3 -28 -6 -11 -4 -17 2 -20 18 l-4
23 -2 -24 c-1 -21 -5 -23 -31 -18 -49 10 -33 -28 18 -42 25 -8 36 -6 56 10 13
10 30 19 37 19 19 0 48 30 43 45 -3 7 4 18 15 25 26 14 27 47 2 55 -13 4 -18
12 -14 21 3 8 11 13 18 10 7 -2 18 1 24 7 8 8 11 3 11 -19 0 -48 14 -60 39
-35 11 11 21 27 20 34 0 9 -2 9 -6 0 -8 -22 -23 -14 -23 12 0 14 5 25 10 25 6
0 10 7 10 16 0 8 4 13 10 9 5 -3 6 -13 3 -22 -5 -13 -2 -15 18 -9 13 4 34 10
47 13 12 3 22 13 22 23 0 10 12 23 28 29 15 6 40 27 55 46 15 19 34 35 41 35
8 0 30 18 50 40 20 22 39 40 42 40 3 0 13 8 22 17 12 12 13 18 4 21 -22 7 -13
23 11 17 16 -5 36 4 72 32 67 50 66 49 102 78 17 14 33 21 35 17 5 -13 104
-82 117 -82 6 0 11 -4 11 -10 0 -5 7 -10 15 -10 8 0 24 -4 35 -10 11 -5 29
-15 40 -20 11 -6 31 -10 45 -10 24 0 33 -3 82 -28 13 -7 38 -12 57 -12 19 0
37 -4 40 -8 4 -7 38 -10 166 -16 14 -1 30 -5 37 -9 19 -12 237 -7 245 6 6 9
13 9 29 -1 15 -10 24 -11 32 -3 6 6 27 11 47 11 20 0 41 5 47 11 5 5 29 10 52
11 22 0 41 4 41 9 0 5 18 9 40 9 22 0 40 5 40 10 0 6 15 10 34 10 18 0 39 6
45 14 6 7 32 16 57 20 42 5 47 3 79 -29 19 -19 35 -38 35 -43 0 -5 13 -19 29
-31 16 -13 27 -29 25 -36 -5 -13 40 -30 56 -20 5 3 11 1 15 -5 6 -9 -14 -14
-42 -11 -7 1 -13 -5 -13 -14 0 -8 -4 -15 -8 -15 -8 0 -32 -43 -32 -55 0 -15
33 -2 37 15 6 24 23 27 23 4 0 -20 -24 -44 -44 -44 -9 0 -16 -4 -16 -9 0 -13
39 -21 71 -14 22 4 29 2 29 -11 0 -9 8 -16 18 -16 10 0 25 -12 34 -27 9 -16
33 -44 52 -64 21 -22 34 -43 31 -51 -5 -11 2 -15 26 -16 34 -1 68 -22 35 -22
-15 0 -17 -5 -11 -27 3 -16 14 -36 22 -45 17 -19 73 -25 73 -8 0 6 9 10 20 10
13 0 20 -7 20 -20 0 -17 -6 -19 -40 -16 -50 4 -56 -5 -27 -35 23 -23 41 -57
39 -71 -1 -3 5 -12 13 -18 8 -7 15 -19 15 -26 0 -8 5 -14 10 -14 6 0 15 -11
20 -25 5 -14 14 -25 20 -25 5 0 10 -9 10 -20 0 -24 6 -25 26 -6 9 9 10 17 4
21 -5 3 -10 15 -10 26 0 11 -7 27 -15 36 -17 16 -16 33 0 36 6 1 11 -8 13 -20
2 -13 8 -23 13 -23 14 0 49 -33 49 -47 0 -6 -9 -15 -21 -18 -23 -8 -47 -57
-30 -63 6 -2 11 -10 11 -17 0 -8 13 -29 30 -47 17 -18 30 -38 30 -44 0 -6 11
-19 25 -28 14 -9 25 -26 25 -37 0 -28 18 -59 35 -59 7 0 19 -16 26 -35 8 -22
16 -30 20 -23 6 9 10 6 14 -7 4 -11 11 -29 15 -40 5 -11 10 -29 12 -40 2 -12
12 -21 25 -23 31 -5 51 -31 32 -42 -12 -8 -11 -12 4 -27 14 -14 17 -15 18 -3
4 50 -4 77 -30 101 -18 17 -28 35 -26 50 3 31 1 30 30 19 19 -7 25 -6 25 4 0
16 27 29 41 20 15 -9 11 -74 -6 -80 -8 -4 -15 -15 -15 -25 0 -10 7 -19 15 -19
8 0 15 5 15 11 0 5 5 7 10 4 6 -4 8 -10 5 -15 -3 -5 2 -13 12 -19 16 -8 13
-14 -25 -52 -23 -24 -42 -47 -42 -51 0 -4 12 -8 28 -8 24 -1 25 -2 10 -14 -23
-17 -23 -26 2 -26 21 0 22 5 23 73 0 29 4 37 18 37 10 0 21 9 24 20 3 11 11
20 16 20 14 0 -1 51 -23 74 -10 11 -18 26 -18 34 0 8 -13 26 -29 41 -16 15
-31 38 -33 52 -4 28 -26 32 -42 6 -8 -13 -8 -19 0 -25 9 -5 8 -10 -1 -19 -11
-10 -14 -3 -17 33 -2 25 0 48 4 50 5 3 8 0 8 -5 0 -6 5 -11 10 -11 17 0 11 36
-10 55 -11 10 -20 26 -20 37 0 10 -4 18 -9 18 -5 0 -11 8 -14 18 -8 22 -55
103 -73 123 -8 8 -14 19 -14 23 0 8 -51 78 -64 87 -5 4 -5 12 -1 19 4 7 -2 18
-14 26 -12 8 -21 22 -21 30 0 8 -6 14 -14 14 -13 0 -26 29 -26 62 0 9 -14 31
-31 50 -47 51 -52 58 -88 131 -18 37 -37 70 -42 73 -5 3 -9 13 -9 22 0 9 -19
37 -41 61 -23 24 -46 59 -51 79 -5 19 -16 42 -24 50 -9 8 -13 21 -10 29 3 7
-4 23 -15 34 -17 17 -19 23 -8 30 7 4 19 4 25 -2 7 -6 16 -4 24 6 13 16 6 20
-34 15 -11 -1 -15 3 -12 9 4 6 16 11 27 11 10 0 19 4 19 10 0 18 43 60 62 60
11 0 18 7 18 19 0 10 7 24 15 31 19 16 19 30 1 30 -8 0 -24 -14 -36 -30 -12
-16 -29 -30 -38 -30 -20 0 -46 -36 -37 -50 4 -6 2 -10 -4 -10 -5 0 -16 -3 -25
-6 -11 -4 -16 -1 -16 10 0 9 8 16 18 16 16 1 16 2 -2 15 -20 15 -13 37 12 34
28 -3 52 12 52 32 0 30 -51 25 -74 -6 -11 -15 -25 -24 -34 -20 -10 4 -13 0 -9
-15 6 -24 -24 -28 -42 -6 -21 26 55 86 109 86 16 0 30 4 30 8 0 4 14 16 30 25
17 10 30 15 30 11 0 -3 6 -1 14 6 8 6 12 18 9 26 -3 8 4 24 15 34 16 15 21 16
25 5 4 -8 14 -11 26 -8 18 4 21 13 21 54 0 44 -3 51 -25 59 -26 10 -32 24 -15
35 6 3 13 -1 16 -9 9 -22 24 -20 24 3 0 11 9 23 20 26 11 3 20 11 20 17 0 5 8
22 19 36 11 16 19 45 19 68 0 23 11 63 24 90 15 33 22 65 21 97 0 26 3 47 8
47 5 0 9 -4 9 -10 0 -5 5 -10 10 -10 24 0 8 36 -20 47 -38 14 -40 37 -3 30 29
-5 63 7 63 23 0 6 -6 10 -14 10 -8 0 -17 4 -20 9 -3 5 2 8 12 7 13 -1 16 5 14
24 -2 14 -7 29 -12 34 -5 5 -6 15 -3 22 4 11 8 12 19 3 12 -10 14 -7 14 17 -2
50 8 135 18 147 8 11 8 31 -2 120 -1 16 -9 33 -17 38 -11 6 -11 11 -1 21 18
18 15 62 -8 91 -11 14 -20 38 -20 54 0 53 -31 147 -81 245 -5 10 -9 25 -9 33
0 8 -4 15 -9 15 -17 0 -22 34 -6 42 8 5 15 16 15 23 0 8 9 15 20 15 29 0 45
36 23 49 -16 9 -16 10 -1 11 9 0 18 -5 20 -12 3 -8 13 -6 32 9 25 20 25 22 9
32 -16 9 -14 10 10 11 35 0 97 46 97 71 0 11 7 19 18 19 9 0 23 9 30 20 7 11
21 20 31 20 10 0 36 16 57 35 21 19 42 35 46 35 4 0 8 7 8 15 0 8 11 17 24 21
14 3 32 14 42 25 9 10 21 19 26 19 5 0 20 11 34 25 14 14 43 33 65 43 21 9 39
22 39 29 0 6 9 18 20 26 18 13 19 18 9 41 -7 14 -16 26 -21 26 -4 0 -8 13 -8
30 0 30 -44 80 -92 106 -25 14 -59 -4 -128 -66 -25 -23 -60 -48 -77 -57 -18
-8 -77 -58 -130 -109 -53 -52 -103 -94 -110 -94 -7 0 -13 -9 -13 -20 0 -11 -4
-20 -10 -20 -5 0 -10 -8 -10 -18 0 -9 -10 -23 -21 -31 -19 -11 -21 -11 -16 3
16 40 -34 4 -137 -101 -23 -24 -47 -43 -52 -43 -6 0 -39 27 -75 61 -35 33 -76
68 -91 77 -16 9 -28 20 -28 24 0 4 -5 8 -10 8 -6 0 -20 9 -32 20 -12 11 -34
20 -50 20 -15 0 -28 5 -28 10 0 6 -9 10 -19 10 -11 0 -21 5 -23 11 -2 6 -17
12 -33 13 -40 3 -89 17 -96 28 -3 4 -25 10 -50 13 -24 3 -60 8 -79 12 -49 9
-284 10 -350 0 -30 -4 -76 -10 -101 -13 -35 -4 -49 -12 -61 -31 -15 -25 -68
-42 -68 -22 0 5 -7 9 -15 9 -10 0 -15 -7 -13 -17 2 -14 -5 -18 -32 -19 -19 -1
-48 -5 -63 -9 -25 -6 -28 -11 -22 -34 4 -21 3 -23 -5 -11 -9 11 -13 12 -17 3
-2 -7 -16 -13 -29 -13 -13 0 -24 6 -25 13 0 6 -4 2 -9 -10 -5 -13 -14 -23 -20
-23 -5 0 -10 -7 -10 -16 0 -10 -5 -14 -15 -10 -10 3 -27 -6 -45 -24 -26 -27
-33 -29 -53 -19 -45 24 -77 51 -77 65 0 8 -11 26 -25 40 -14 14 -25 29 -25 33
0 5 -15 25 -33 45 -19 20 -40 49 -48 64 -16 31 -33 53 -71 94 -16 16 -28 32
-28 37 0 4 -13 22 -30 39 -16 18 -30 36 -30 42 0 5 -4 10 -10 10 -5 0 -10 6
-10 13 0 15 -84 107 -98 107 -6 0 -12 4 -14 8 -4 11 -83 20 -123 14z m1127
-414 c-9 -9 -15 -9 -24 0 -9 9 -7 12 12 12 19 0 21 -3 12 -12z m508 2 c0 -5
-4 -10 -9 -10 -6 0 -13 5 -16 10 -3 6 1 10 9 10 9 0 16 -4 16 -10z m-350 -40
c0 -5 -11 -10 -25 -10 -17 0 -25 -6 -26 -17 0 -11 -2 -13 -6 -5 -9 23 6 42 32
42 14 0 25 -4 25 -10z m347 -22 c-3 -8 -6 -5 -6 6 -1 11 2 17 5 13 3 -3 4 -12
1 -19z m-517 2 c0 -5 -7 -10 -16 -10 -8 0 -12 5 -9 10 3 6 10 10 16 10 5 0 9
-4 9 -10z m380 0 c0 -5 -4 -10 -10 -10 -5 0 -10 5 -10 10 0 6 5 10 10 10 6 0
10 -4 10 -10z m-505 -20 c3 -5 1 -10 -4 -10 -6 0 -11 5 -11 10 0 6 2 10 4 10
3 0 8 -4 11 -10z m215 0 c0 -5 -7 -10 -16 -10 -8 0 -12 5 -9 10 3 6 10 10 16
10 5 0 9 -4 9 -10z m-307 -47 c-7 -2 -13 -15 -13 -28 0 -14 -9 -29 -20 -35
-14 -7 -20 -7 -20 0 0 5 5 10 10 10 6 0 10 7 10 15 0 19 -2 19 -45 -5 -37 -21
-46 -11 -20 24 9 12 22 17 35 13 11 -3 23 -1 26 4 3 5 15 9 27 8 12 0 16 -3
10 -6z m748 -19 c46 -8 88 -20 93 -25 6 -5 23 -9 38 -9 16 0 48 -9 70 -20 23
-11 46 -20 50 -20 5 0 20 -11 34 -25 14 -14 39 -28 55 -32 16 -3 29 -10 29
-16 0 -6 12 -23 26 -38 29 -30 28 -31 -34 -81 -25 -21 -28 -38 -7 -38 8 0 15
-4 15 -10 0 -6 -9 -5 -24 1 -21 10 -28 8 -50 -14 -14 -14 -26 -33 -26 -42 0
-8 -9 -15 -19 -15 -12 0 -21 -9 -25 -25 -4 -14 -13 -25 -21 -25 -8 0 -24 -9
-35 -20 -11 -11 -27 -20 -35 -20 -8 0 -15 -4 -15 -10 0 -5 14 -10 30 -10 17 0
30 -4 30 -10 0 -5 -9 -10 -20 -10 -11 0 -20 -7 -20 -15 0 -8 -5 -15 -10 -15
-6 0 -9 5 -8 11 5 19 -35 19 -49 1 -7 -9 -13 -29 -13 -44 0 -15 -4 -30 -10
-33 -6 -4 -10 5 -10 20 0 17 -5 25 -12 22 -7 -2 -13 -13 -13 -24 0 -12 -3 -25
-7 -29 -5 -4 -8 2 -8 14 0 12 -3 22 -7 22 -5 0 -33 -23 -63 -52 -30 -28 -65
-57 -77 -66 -13 -8 -23 -20 -23 -27 0 -7 -18 -24 -39 -38 -41 -27 -56 -64 -34
-82 8 -6 9 -15 4 -23 -6 -10 -14 -9 -39 5 -36 21 -49 14 -32 -17 10 -18 9 -25
-5 -39 -13 -12 -19 -13 -22 -3 -6 15 -45 16 -61 0 -9 -9 -19 -5 -42 17 -16 16
-30 34 -30 39 0 6 -12 25 -28 41 -15 17 -36 46 -46 65 -11 19 -25 39 -33 43
-7 4 -13 15 -13 22 0 8 -4 15 -8 15 -4 0 -16 14 -26 31 -10 16 -40 59 -67 94
-27 35 -49 68 -49 72 0 5 -9 15 -20 23 -11 8 -20 22 -20 32 0 10 -4 18 -10 18
-5 0 -10 5 -10 11 0 7 -8 19 -18 28 -23 20 -92 122 -92 136 0 5 20 24 45 40
24 17 45 33 45 38 0 4 11 7 24 7 14 0 28 5 31 10 3 6 15 10 26 10 10 0 19 5
19 10 0 6 7 10 15 10 8 0 15 5 15 10 0 6 11 10 25 10 14 0 25 5 25 10 0 6 11
10 25 10 14 0 25 5 25 10 0 6 11 10 25 10 13 0 40 9 60 20 20 11 55 20 78 20
23 1 56 7 72 15 43 19 252 19 356 -1z m-1161 -14 c0 -5 -5 -10 -11 -10 -5 0
-7 5 -4 10 3 6 8 10 11 10 2 0 4 -4 4 -10z m1857 -16 c2 -5 -3 -19 -12 -29
-14 -19 -14 -18 -15 13 0 31 18 42 27 16z m151 -24 c-7 -11 -16 -20 -20 -20
-5 0 -8 9 -8 20 0 13 7 20 20 20 18 0 19 -2 8 -20z m-1758 -30 c0 -5 7 -10 15
-10 16 0 20 -15 7 -24 -5 -3 -16 4 -25 15 -20 22 -21 29 -7 29 6 0 10 -4 10
-10z m-43 -27 c4 -10 11 -21 17 -25 6 -4 7 -10 4 -14 -6 -6 -58 39 -58 51 0
13 31 3 37 -12z m1601 -69 c-11 -29 -12 -29 -16 -5 -2 13 2 27 9 32 19 12 21
5 7 -27z m49 10 c-3 -3 -12 -4 -19 -1 -8 3 -5 6 6 6 11 1 17 -2 13 -5z m-1917
-141 c0 -5 -5 -15 -10 -23 -8 -12 -10 -11 -10 8 0 12 5 22 10 22 6 0 10 -3 10
-7z m45 -13 c-10 -11 -20 -18 -23 -15 -7 6 18 35 31 35 5 0 2 -9 -8 -20z
m1507 -35 c4 -21 1 -25 -19 -25 -23 0 -23 1 -7 25 9 14 18 25 19 25 1 0 5 -11
7 -25z m-1634 -9 c-7 -8 -15 -12 -17 -11 -5 6 10 25 20 25 5 0 4 -6 -3 -14z
m225 -19 c9 -4 21 -15 24 -24 4 -10 16 -27 28 -38 11 -12 29 -40 40 -63 11
-23 27 -44 36 -47 9 -3 19 -19 22 -34 4 -16 16 -40 29 -53 13 -13 28 -31 33
-40 36 -55 118 -157 130 -162 8 -3 15 -10 15 -17 0 -16 80 -127 97 -133 8 -3
12 -10 8 -16 -3 -5 2 -21 11 -35 18 -28 13 -55 -11 -55 -8 0 -15 -4 -15 -10 0
-5 14 -10 30 -10 17 0 30 -5 30 -11 0 -5 -10 -9 -22 -7 -20 3 -23 -1 -20 -29
1 -18 -2 -33 -8 -33 -5 0 -10 8 -10 19 0 10 -9 21 -20 24 -13 3 -20 0 -20 -9
0 -8 -10 -14 -25 -14 -20 0 -25 -5 -25 -24 0 -19 -7 -26 -30 -31 -28 -6 -45
-39 -17 -33 6 1 24 -1 40 -5 20 -6 27 -14 27 -32 0 -21 5 -25 30 -25 35 0 41
-23 11 -40 -21 -11 -48 -4 -68 16 -17 17 -16 24 2 24 18 0 18 5 5 31 -13 23
-36 25 -44 4 -3 -8 -14 -15 -25 -15 -11 0 -23 -9 -27 -22 -4 -12 -19 -35 -34
-50 -25 -24 -29 -25 -35 -10 -3 9 -1 18 4 20 14 5 14 22 1 22 -6 0 -20 -9 -32
-20 -12 -11 -16 -20 -10 -20 7 0 12 -4 12 -10 0 -5 -9 -10 -20 -10 -11 0 -20
-7 -20 -16 0 -11 -6 -14 -20 -9 -16 5 -20 2 -20 -19 0 -29 -25 -46 -69 -46
-23 0 -29 -4 -25 -15 5 -12 15 -14 40 -9 37 7 44 -2 17 -22 -21 -16 -79 -18
-88 -4 -9 14 -45 -11 -45 -31 0 -19 -25 -43 -38 -35 -4 3 -6 -8 -4 -25 5 -35
22 -39 22 -4 0 14 5 25 10 25 13 0 13 -37 0 -45 -20 -12 15 -32 47 -28 32 5
49 33 31 51 -15 15 -1 31 22 25 11 -3 20 0 20 6 0 6 -5 11 -12 11 -6 0 -2 9
10 20 12 11 35 20 52 20 16 0 30 5 30 10 0 6 -7 10 -15 10 -8 0 -15 5 -15 10
0 6 11 10 24 10 20 0 25 -6 28 -35 3 -24 -1 -40 -12 -50 -24 -22 -43 -19 -35
5 4 11 2 20 -4 20 -6 0 -11 -8 -11 -19 0 -10 -9 -21 -20 -24 -22 -6 -28 -42
-7 -51 6 -4 2 -4 -10 -2 -24 4 -49 -17 -39 -32 3 -6 -1 -15 -9 -22 -7 -6 -12
-17 -9 -24 3 -9 -6 -13 -30 -14 -36 -1 -37 -1 -50 58 -7 33 -53 55 -65 32 -4
-10 -6 -23 -4 -29 3 -7 -3 -13 -12 -13 -9 0 -19 -9 -22 -20 -7 -27 -29 -25
-37 3 -6 21 -7 21 -20 5 -17 -23 -55 -23 -63 -1 -4 10 -17 28 -29 39 -11 12
-38 55 -59 95 -36 69 -49 108 -62 187 -3 17 -9 32 -14 32 -5 0 -9 24 -9 53 l0
52 -20 -25 -20 -25 0 33 c0 29 3 32 20 27 15 -5 20 -2 20 12 0 11 5 24 11 30
8 8 7 17 -2 34 -9 17 -9 24 0 27 14 5 15 79 0 87 -6 5 -2 13 11 22 17 12 21
22 17 43 -4 16 0 36 9 49 9 12 15 31 14 44 -4 39 0 46 23 49 15 2 25 13 32 36
5 17 15 32 22 32 7 0 13 10 13 23 0 12 9 33 20 47 11 14 20 30 20 37 0 6 4 13
9 15 10 4 58 76 84 125 10 20 27 37 38 40 10 3 19 9 19 13 0 5 16 23 36 42 20
18 40 43 45 55 5 14 14 20 22 17 8 -3 17 3 21 13 4 11 10 13 14 7 4 -6 15 -13
25 -17z m-176 7 c-3 -3 -12 -4 -19 -1 -8 3 -5 6 6 6 11 1 17 -2 13 -5z m1742
-28 c8 -10 9 -16 1 -21 -5 -3 -10 0 -10 9 0 8 -6 17 -12 19 -8 4 -9 6 -2 6 6
1 17 -5 23 -13z m75 -2 c9 -3 16 -16 16 -28 0 -12 6 -30 14 -41 8 -11 20 -40
27 -65 7 -25 15 -49 19 -55 4 -5 8 -30 9 -55 1 -25 6 -62 12 -84 11 -41 10
-201 -2 -226 -4 -8 -8 -44 -10 -80 -2 -36 -6 -69 -9 -75 -4 -5 -15 -45 -25
-88 -9 -42 -21 -79 -25 -82 -4 -3 -4 -22 0 -42 5 -21 5 -42 1 -48 -15 -19 -19
-53 -11 -94 7 -39 6 -42 -27 -62 -21 -13 -30 -24 -24 -29 8 -4 5 -13 -9 -25
-11 -10 -20 -29 -20 -42 0 -12 -4 -23 -10 -23 -5 0 -10 -9 -10 -20 0 -13 7
-20 20 -20 11 0 20 -4 20 -9 0 -15 -29 -33 -45 -27 -10 4 -15 -1 -15 -14 0
-31 -17 -24 -62 25 -24 26 -51 45 -63 45 -26 0 -65 -27 -65 -46 0 -8 -6 -14
-13 -14 -7 0 -23 -9 -35 -20 -12 -11 -25 -20 -31 -20 -5 0 -11 -5 -13 -11 -9
-27 -44 11 -97 104 -66 116 -81 137 -100 137 -6 0 -11 9 -11 19 0 11 -4 22 -9
26 -6 3 -23 29 -40 58 -16 28 -39 62 -50 74 -12 12 -21 27 -21 33 0 11 -9 24
-42 61 -10 10 -18 22 -18 25 0 3 -11 20 -25 38 -14 18 -25 40 -25 49 0 10 -4
17 -10 17 -21 0 -9 37 21 63 17 15 35 27 40 27 5 0 9 7 9 15 0 9 9 15 21 15
22 0 63 44 65 70 3 40 4 42 32 35 37 -8 89 29 71 51 -9 11 -6 14 16 14 32 0
88 53 120 113 11 20 25 37 31 37 7 0 15 6 17 13 4 9 6 9 6 0 1 -6 -9 -19 -21
-27 -12 -9 -19 -18 -17 -21 8 -7 69 24 69 35 0 5 14 17 30 27 17 9 30 23 30
31 0 7 13 19 30 25 34 15 160 126 160 142 0 6 15 15 33 20 17 6 33 17 33 25 3
27 4 30 13 30 5 0 16 -3 25 -6z m-248 -19 c9 -8 11 -15 5 -15 -6 0 -11 -7 -11
-16 0 -8 -4 -12 -10 -9 -9 5 -11 55 -2 55 2 0 10 -7 18 -15z m-1226 -55 c0 -5
-4 -10 -10 -10 -5 0 -10 5 -10 10 0 6 5 10 10 10 6 0 10 -4 10 -10z m-520 -17
c0 -5 -5 -15 -10 -23 -8 -12 -10 -11 -10 8 0 12 5 22 10 22 6 0 10 -3 10 -7z
m80 -3 c0 -5 -9 -10 -19 -10 -11 0 -21 -6 -24 -12 -2 -7 -8 -10 -12 -6 -10 10
17 37 38 38 9 0 17 -4 17 -10z m1685 0 c-3 -5 -14 -10 -23 -10 -10 0 -24 -9
-32 -20 -9 -13 -26 -20 -48 -20 -18 0 -31 4 -28 9 4 5 0 12 -6 15 -7 3 1 5 17
4 36 -1 75 11 75 23 0 5 12 9 26 9 14 0 23 -4 19 -10z m-1168 -82 c-3 -8 -6
-5 -6 6 -1 11 2 17 5 13 3 -3 4 -12 1 -19z m-37 -18 c0 -5 -5 -10 -11 -10 -5
0 -7 5 -4 10 3 6 8 10 11 10 2 0 4 -4 4 -10z m900 -46 c0 -2 -7 -4 -15 -4 -8
0 -15 4 -15 10 0 5 7 7 15 4 8 -4 15 -8 15 -10z m65 6 c3 -6 -4 -10 -17 -10
-18 0 -20 2 -8 10 19 12 18 12 25 0z m-1595 -34 c0 -7 -6 -25 -13 -38 l-13
-25 -18 24 c-13 18 -15 28 -7 36 8 8 11 6 11 -6 0 -9 7 -17 15 -17 18 0 20 26
3 33 -8 3 -6 6 5 6 9 1 17 -5 17 -13z m760 -16 c0 -5 -2 -10 -4 -10 -3 0 -8 5
-11 10 -3 6 -1 10 4 10 6 0 11 -4 11 -10z m758 -7 c-2 -10 -10 -18 -18 -18 -8
0 -16 8 -18 18 -2 12 3 17 18 17 15 0 20 -5 18 -17z m82 3 c0 -8 -4 -18 -10
-21 -5 -3 -10 3 -10 14 0 12 5 21 10 21 6 0 10 -6 10 -14z m-230 -40 c0 -8 -4
-18 -10 -21 -5 -3 -10 3 -10 14 0 12 5 21 10 21 6 0 10 -6 10 -14z m-1410 -21
c0 -8 -4 -15 -10 -15 -5 0 -10 7 -10 15 0 8 5 15 10 15 6 0 10 -7 10 -15z
m2355 5 c3 -5 -1 -10 -10 -10 -9 0 -13 5 -10 10 3 6 8 10 10 10 2 0 7 -4 10
-10z m-980 -19 c6 -11 -35 -42 -46 -35 -11 7 13 44 28 44 6 0 14 -4 18 -9z
m-1302 -42 c-5 -18 -26 -23 -24 -6 1 4 1 14 1 22 0 8 6 12 14 9 8 -3 12 -13 9
-25z m1463 15 c-3 -9 -6 -18 -6 -20 0 -2 -12 -4 -27 -3 -16 0 -22 3 -13 6 8 3
19 12 23 19 11 19 30 17 23 -2z m-135 -107 c-8 -8 -11 -7 -11 4 0 20 13 34 18
19 3 -7 -1 -17 -7 -23z m-1498 -21 c4 -10 1 -13 -9 -9 -7 3 -14 0 -14 -6 0 -6
-4 -11 -10 -11 -5 0 -10 9 -10 20 0 24 35 28 43 6z m1422 -11 c-3 -14 -7 -36
-10 -50 -4 -18 -12 -25 -29 -25 -38 0 -42 29 -5 37 27 5 30 9 27 34 -3 20 0
29 9 29 9 0 12 -8 8 -25z m-145 -26 c0 -16 5 -29 10 -29 6 0 10 -7 10 -15 0
-24 -28 -17 -43 11 -10 20 -11 32 -3 49 14 30 26 22 26 -16z m54 -11 c20 -28
4 -48 -18 -25 -18 17 -21 47 -7 47 6 0 17 -10 25 -22z m1113 -10 c-3 -8 -6 -5
-6 6 -1 11 2 17 5 13 3 -3 4 -12 1 -19z m-2432 2 c4 -6 -7 -10 -24 -10 -17 0
-31 5 -31 10 0 6 11 10 24 10 14 0 28 -4 31 -10z m2335 -49 c0 -18 -18 -21
-30 -6 -10 13 -9 15 9 15 11 0 21 -4 21 -9z m-2310 -141 c0 -5 -4 -10 -10 -10
-5 0 -10 5 -10 10 0 6 5 10 10 10 6 0 10 -4 10 -10z m1080 -41 c0 -5 -7 -9
-15 -9 -15 0 -20 12 -9 23 8 8 24 -1 24 -14z m-119 -63 c15 -9 34 -16 43 -16
14 0 15 -2 4 -14 -8 -9 -15 -10 -19 -3 -4 5 -14 7 -23 4 -9 -4 -16 -3 -16 1 0
5 -16 14 -35 21 -38 13 -45 36 -17 57 15 11 18 10 26 -10 5 -13 21 -31 37 -40z
m339 49 c0 -8 -4 -15 -9 -15 -5 0 -11 7 -15 15 -3 9 0 15 9 15 8 0 15 -7 15
-15z m-260 -30 c7 -9 10 -18 7 -21 -10 -11 -37 5 -37 21 0 19 14 19 30 0z
m118 -35 c22 -22 51 -40 63 -40 17 0 19 -3 10 -13 -8 -10 -7 -21 2 -40 6 -15
15 -27 20 -27 4 0 7 -6 7 -13 0 -7 9 -19 20 -27 11 -8 20 -19 20 -25 0 -16 24
-65 32 -65 4 0 19 -20 34 -45 14 -25 33 -45 42 -45 13 0 14 -2 4 -9 -10 -6 -8
-15 12 -38 14 -17 26 -35 26 -41 0 -5 7 -13 16 -16 8 -3 13 -10 9 -15 -3 -5
-1 -12 5 -16 5 -3 10 3 10 14 0 11 4 23 10 26 6 4 9 -11 8 -38 -2 -36 3 -51
29 -82 l32 -38 -26 -14 c-14 -7 -36 -13 -49 -13 -13 0 -24 -4 -24 -10 0 -5 -9
-10 -21 -10 -11 0 -30 -5 -42 -12 -12 -6 -35 -13 -51 -15 -33 -3 -47 -14 -28
-20 6 -3 12 -9 12 -14 0 -13 -27 -11 -50 3 -15 10 -41 8 -132 -10 -62 -12
-128 -22 -145 -22 -20 0 -33 -5 -33 -12 0 -9 -3 -10 -8 -2 -16 25 -52 32 -162
33 -63 1 -119 6 -124 11 -6 6 -34 10 -62 10 -29 0 -56 4 -59 10 -3 5 -37 19
-75 30 -56 17 -69 25 -72 43 -2 17 -11 23 -36 25 -18 2 -30 7 -27 12 3 5 19 7
35 3 23 -4 30 -2 30 11 0 18 16 22 22 5 5 -14 39 2 72 32 11 11 23 19 26 19 4
0 13 12 20 26 12 22 12 27 0 34 -8 5 -11 12 -7 16 4 4 13 2 19 -4 15 -15 38
-16 38 -2 0 11 59 70 70 70 4 0 10 9 13 21 3 13 10 18 17 14 7 -4 18 2 26 14
8 12 24 21 34 21 16 0 37 33 32 51 -1 4 6 5 16 3 19 -4 48 18 75 56 9 14 23
25 30 25 6 0 13 4 14 9 1 4 14 16 30 26 16 9 57 43 91 75 50 46 60 60 51 71
-25 30 9 12 49 -26z m1114 8 c-12 -12 -35 -1 -27 12 3 5 13 6 21 3 10 -4 12
-9 6 -15z m-996 -19 c3 -6 2 -15 -4 -21 -7 -7 -14 -3 -21 11 -10 17 -9 21 3
21 8 0 18 -5 22 -11z m1056 -41 c-15 -15 -26 -4 -18 18 5 13 9 15 18 6 9 -9 9
-15 0 -24z m-1492 -14 c0 -8 -4 -14 -10 -14 -5 0 -10 9 -10 21 0 11 5 17 10
14 6 -3 10 -13 10 -21z m520 16 c0 -5 -2 -10 -4 -10 -3 0 -8 5 -11 10 -3 6 -1
10 4 10 6 0 11 -4 11 -10z m22 -52 c-9 -9 -12 -7 -12 12 0 19 3 21 12 12 9 -9
9 -15 0 -24z m-522 12 c0 -5 -5 -10 -11 -10 -5 0 -7 5 -4 10 3 6 8 10 11 10 2
0 4 -4 4 -10z m558 -63 c12 -3 10 -5 -5 -6 -19 -1 -23 4 -22 27 1 22 2 23 6 5
2 -12 12 -24 21 -26z m-631 11 c-3 -8 -6 -5 -6 6 -1 11 2 17 5 13 3 -3 4 -12
1 -19z m1436 -3 c-7 -19 -17 -19 -32 -1 -10 11 -8 15 6 18 25 6 33 0 26 -17z
m87 -24 c0 -13 -28 -22 -35 -11 -3 4 1 11 7 13 20 8 28 8 28 -2z m-950 -26 c0
-14 -6 -25 -12 -25 -7 0 -13 11 -13 25 0 14 6 25 13 25 6 0 12 -11 12 -25z
m-592 -12 c5 -18 -10 -16 -34 2 -18 15 -18 15 5 13 14 -2 26 -9 29 -15z m695
-35 c-11 -19 -33 -6 -33 19 0 26 0 26 19 7 10 -10 17 -22 14 -26z m767 28 c0
-11 -19 -15 -25 -6 -3 5 1 10 9 10 9 0 16 -2 16 -4z m62 -21 c-5 -28 -22 -24
-22 6 0 10 6 19 14 19 9 0 12 -8 8 -25z m-1542 1 c0 -2 -3 -11 -6 -20 -9 -23
-34 -20 -34 4 0 13 7 20 20 20 11 0 20 -2 20 -4z m769 -33 c-7 -10 -15 -20
-16 -22 -2 -2 -3 5 -3 17 0 14 6 22 16 22 14 0 15 -3 3 -17z m31 -73 c0 -5 -5
-10 -11 -10 -5 0 -7 5 -4 10 3 6 8 10 11 10 2 0 4 -4 4 -10z m614 -55 c3 -8 1
-15 -4 -15 -6 0 -10 7 -10 15 0 8 2 15 4 15 2 0 6 -7 10 -15z m-1779 -82 c7
-9 11 -23 8 -30 -6 -15 -33 -18 -33 -3 0 6 5 10 10 10 6 0 10 5 10 10 0 6 -11
10 -25 10 -14 0 -25 5 -25 10 0 17 42 11 55 -7z m1715 -4 c0 -11 -4 -17 -10
-14 -5 3 -10 13 -10 21 0 8 5 14 10 14 6 0 10 -9 10 -21z m50 -9 c8 -5 11 -10
5 -10 -5 0 -17 5 -25 10 -8 5 -10 10 -5 10 6 0 17 -5 25 -10z m-515 -60 c3 -5
1 -10 -4 -10 -6 0 -11 5 -11 10 0 6 2 10 4 10 3 0 8 -4 11 -10z m-1518 -82
c-3 -8 -6 -5 -6 6 -1 11 2 17 5 13 3 -3 4 -12 1 -19z m73 -22 c0 -3 -4 -8 -10
-11 -5 -3 -10 -1 -10 4 0 6 5 11 10 11 6 0 10 -2 10 -4z m-86 -15 c4 -5 3 -17
0 -26 -5 -13 -8 -14 -15 -3 -5 7 -9 19 -9 26 0 14 16 16 24 3z m56 -11 c0 -5
-4 -10 -9 -10 -6 0 -13 5 -16 10 -3 6 1 10 9 10 9 0 16 -4 16 -10z m-44 -72
c-10 -6 -20 -7 -24 -3 -9 8 20 25 31 18 5 -3 2 -10 -7 -15z m1854 -40 c0 -18
-2 -20 -9 -8 -6 8 -7 18 -5 22 9 14 14 9 14 -14z m-73 -75 c14 -29 8 -47 -8
-23 -8 13 -10 13 -18 0 -15 -23 -25 -3 -13 25 15 32 24 31 39 -2z m33 17 c0
-5 -4 -10 -10 -10 -5 0 -10 5 -10 10 0 6 5 10 10 10 6 0 10 -4 10 -10z m70 6
c0 -3 -4 -8 -10 -11 -5 -3 -10 -1 -10 4 0 6 5 11 10 11 6 0 10 -2 10 -4z m-94
-93 c-10 -10 -19 5 -10 18 6 11 8 11 12 0 2 -7 1 -15 -2 -18z m84 -13 c0 -5
-5 -10 -11 -10 -5 0 -7 5 -4 10 3 6 8 10 11 10 2 0 4 -4 4 -10z m-2120 -45 c0
-8 -4 -15 -10 -15 -5 0 -10 7 -10 15 0 8 5 15 10 15 6 0 10 -7 10 -15z m-120
-65 c0 -5 -4 -10 -10 -10 -5 0 -10 5 -10 10 0 6 5 10 10 10 6 0 10 -4 10 -10z
m-66 -6 c26 -10 18 -24 -14 -24 -16 0 -30 -4 -30 -10 0 -5 -4 -10 -10 -10 -5
0 -10 9 -10 21 0 11 4 18 9 14 5 -3 12 -1 16 5 7 12 17 13 39 4z m2346 -9 c0
-8 -7 -15 -15 -15 -26 0 -18 20 13 29 1 1 2 -6 2 -14z m-140 -24 c0 -6 -4 -13
-10 -16 -5 -3 -10 1 -10 9 0 9 5 16 10 16 6 0 10 -4 10 -9z m195 -2 c11 -17
-1 -21 -15 -4 -8 9 -8 15 -2 15 6 0 14 -5 17 -11z m-25 -49 c-13 -8 -12 -11 4
-23 17 -12 17 -14 2 -20 -21 -8 -46 2 -46 19 0 14 41 47 49 38 3 -3 -1 -9 -9
-14z m90 -20 c8 -5 11 -12 8 -16 -4 -3 -14 1 -23 10 -18 17 -9 21 15 6z m-40
-60 c0 -5 -8 -10 -17 -11 -11 0 -13 -3 -5 -6 19 -7 15 -35 -5 -31 -11 2 -18
14 -20 31 -1 23 2 27 23 27 13 0 24 -4 24 -10z m30 -5 c0 -8 -4 -15 -10 -15
-5 0 -10 7 -10 15 0 8 5 15 10 15 6 0 10 -7 10 -15z m30 -74 c0 -5 -6 -12 -12
-14 -10 -4 -9 -8 2 -16 12 -8 12 -12 -3 -29 -9 -10 -14 -23 -10 -27 5 -5 0 -3
-9 4 -21 15 -24 61 -6 79 14 14 38 16 38 3z m30 -21 c0 -5 -4 -10 -10 -10 -5
0 -10 5 -10 10 0 6 5 10 10 10 6 0 10 -4 10 -10z m45 -49 c-2 -5 -17 -6 -32
-3 l-28 6 25 6 c27 7 43 3 35 -9z m15 -35 c0 -2 -7 -6 -15 -10 -8 -3 -15 -1
-15 4 0 6 7 10 15 10 8 0 15 -2 15 -4z m30 -20 c0 -3 -4 -8 -10 -11 -5 -3 -10
-1 -10 4 0 6 5 11 10 11 6 0 10 -2 10 -4z m-40 -37 c0 -12 7 -19 20 -19 11 0
20 -5 20 -11 0 -6 -9 -9 -19 -6 -11 3 -29 -1 -39 -9 -17 -12 -21 -12 -26 2 -7
18 23 76 36 68 4 -3 8 -14 8 -25z m80 -89 c0 -5 9 -10 20 -10 11 0 20 -4 20
-10 0 -5 -13 -10 -30 -10 -23 0 -30 4 -30 20 0 11 5 20 10 20 6 0 10 -4 10
-10z m65 -101 c4 -6 13 -8 20 -5 13 4 40 -42 30 -52 -3 -3 -16 1 -30 8 -20 10
-27 11 -40 0 -12 -10 -16 -9 -22 6 -4 10 -2 19 5 22 7 2 12 10 12 18 0 16 16
19 25 3z m-45 -96 c0 -15 1 -15 18 0 24 22 52 22 52 0 1 -16 2 -16 13 -3 18
22 64 23 70 1 4 -16 -4 -19 -47 -25 -28 -3 -63 -9 -77 -12 -20 -4 -28 -1 -33
13 -3 10 -9 24 -12 31 -3 6 -1 12 5 12 6 0 11 -7 11 -17z m95 -53 c3 -5 -1
-10 -9 -10 -9 0 -16 5 -16 10 0 6 4 10 9 10 6 0 13 -4 16 -10z m65 -25 c15
-18 7 -29 -26 -39 -28 -8 -39 17 -18 39 19 19 28 19 44 0z m52 -87 c-9 -21
-21 -4 -18 25 6 52 8 54 15 17 4 -19 5 -38 3 -42z m-51 5 c8 -16 18 -31 24
-35 6 -5 5 -12 -5 -17 -20 -13 -50 20 -50 54 0 33 13 32 31 -2z"/>
<path d="M3150 2910 c0 -5 4 -10 9 -10 6 0 13 5 16 10 3 6 -1 10 -9 10 -9 0
-16 -4 -16 -10z"/>
<path d="M3810 2366 c0 -9 5 -16 10 -16 6 0 10 4 10 9 0 6 -4 13 -10 16 -5 3
-10 -1 -10 -9z"/>
<path d="M4030 785 c0 -8 5 -15 10 -15 6 0 10 7 10 15 0 8 -4 15 -10 15 -5 0
-10 -7 -10 -15z"/>
<path d="M3824 1957 c-8 -21 2 -35 16 -21 5 5 6 15 0 24 -8 12 -10 12 -16 -3z"/>
<path d="M3765 1920 c4 -6 11 -8 16 -5 14 9 11 15 -7 15 -8 0 -12 -5 -9 -10z"/>
<path d="M1645 1837 c-4 -10 -5 -21 -1 -24 10 -10 18 4 13 24 -4 17 -4 17 -12
0z"/>
<path d="M1567 1790 c-9 -11 -12 -20 -7 -20 6 0 10 -10 10 -21 0 -20 -4 -21
-40 -15 -43 7 -51 -4 -26 -36 14 -19 36 -24 36 -9 0 5 6 9 13 8 63 -2 87 4 87
22 0 13 8 21 23 23 16 2 22 10 22 27 0 14 -6 26 -13 29 -7 2 -10 -2 -6 -12 9
-23 -19 -20 -41 4 -10 11 -23 20 -29 20 -7 0 -19 -9 -29 -20z"/>
<path d="M1470 1690 c0 -5 5 -10 10 -10 6 0 10 5 10 10 0 6 -4 10 -10 10 -5 0
-10 -4 -10 -10z"/>
<path d="M3424 1408 c-9 -14 1 -20 30 -16 l26 3 -25 12 c-16 7 -27 8 -31 1z"/>
<path d="M1028 1272 c-15 -9 -27 -23 -25 -32 1 -9 -7 -16 -22 -18 -18 -3 -22
0 -18 12 3 8 2 18 -3 21 -5 3 -8 -11 -7 -32 1 -33 6 -40 36 -55 26 -13 37 -15
43 -6 4 7 10 9 15 5 4 -4 1 -17 -6 -29 -11 -18 -11 -20 4 -14 9 3 22 6 29 6 6
0 12 9 13 20 1 11 -3 20 -8 20 -6 0 -10 15 -8 33 3 50 0 87 -8 87 -5 0 -20 -8
-35 -18z m17 -62 c3 -5 -3 -10 -14 -10 -12 0 -21 5 -21 10 0 6 6 10 14 10 8 0
18 -4 21 -10z"/>
<path d="M1141 1209 c-1 -9 -8 -19 -16 -23 -17 -6 -21 -36 -5 -36 13 0 32 49
26 64 -2 6 -5 4 -5 -5z"/>
<path d="M852 1162 c-16 -13 -20 -20 -12 -28 8 -8 4 -13 -15 -18 -22 -6 -25
-9 -15 -21 7 -8 11 -15 9 -16 -2 0 -12 -2 -23 -4 -10 -2 -23 -8 -29 -14 -6 -6
-20 -11 -31 -11 -12 0 -41 -21 -64 -45 -34 -36 -41 -49 -32 -60 9 -10 7 -15
-8 -19 -11 -4 -23 -17 -27 -29 -4 -13 -8 -17 -12 -9 -10 24 -23 11 -23 -23 0
-41 26 -49 36 -11 5 23 58 55 70 44 9 -9 -19 -58 -33 -58 -7 0 -13 -4 -13 -10
0 -5 -9 -10 -20 -10 -11 0 -20 -4 -20 -10 0 -5 9 -10 20 -10 11 0 20 5 20 10
0 16 17 11 24 -7 4 -11 1 -22 -8 -29 -9 -6 -16 -15 -16 -20 0 -5 -9 -16 -20
-24 -21 -15 -26 -30 -10 -30 10 0 24 13 70 66 53 61 55 65 40 74 -11 7 -11 11
-1 24 10 12 17 13 26 6 9 -7 15 -8 19 -1 4 6 -4 17 -17 26 -18 12 -23 22 -19
45 5 33 13 37 32 15 19 -22 39 -18 46 10 3 14 12 25 20 25 8 0 14 5 14 10 0 6
-11 10 -25 10 -29 0 -31 6 -11 26 17 16 46 19 46 4 0 -5 6 -10 14 -10 11 0 13
9 9 35 -6 39 9 65 38 65 21 0 51 28 44 41 -10 15 -69 10 -93 -9z m-92 -142 c0
-5 -7 -10 -15 -10 -8 0 -15 5 -15 10 0 6 7 10 15 10 8 0 15 -4 15 -10z"/>
<path d="M970 1145 c0 -8 -7 -15 -16 -15 -19 0 -75 -45 -67 -54 4 -3 17 -6 30
-6 13 0 26 -6 29 -14 3 -8 12 -12 20 -9 10 4 13 14 8 38 -3 19 -1 35 5 39 14
9 14 36 1 36 -5 0 -10 -7 -10 -15z"/>
<path d="M990 1080 c0 -5 5 -10 10 -10 6 0 10 5 10 10 0 6 -4 10 -10 10 -5 0
-10 -4 -10 -10z"/>
<path d="M900 1020 c0 -5 5 -10 10 -10 6 0 10 5 10 10 0 6 -4 10 -10 10 -5 0
-10 -4 -10 -10z"/>
<path d="M522 809 c2 -6 7 -10 11 -10 4 1 14 1 22 1 8 0 15 5 15 10 0 6 -12
10 -26 10 -14 0 -24 -5 -22 -11z"/>
<path d="M463 748 c2 -7 12 -13 22 -13 10 0 20 6 23 13 2 7 -6 12 -23 12 -17
0 -25 -5 -22 -12z"/>
<path d="M527 743 c-4 -3 -7 -17 -7 -30 0 -16 -6 -23 -19 -23 -24 0 -36 -29
-15 -37 9 -3 35 3 58 15 23 12 33 21 24 21 -13 1 -18 9 -18 31 0 29 -9 38 -23
23z"/>
<path d="M426 731 c-4 -7 -5 -15 -2 -18 9 -9 19 4 14 18 -4 11 -6 11 -12 0z"/>
<path d="M400 678 c0 -7 -14 -22 -30 -33 -34 -23 -40 -46 -10 -38 11 3 20 9
20 14 0 5 9 9 21 9 14 0 19 6 17 18 -1 9 1 23 5 30 5 8 3 12 -7 12 -9 0 -16
-6 -16 -12z"/>
<path d="M375 561 c-3 -5 -1 -12 4 -15 13 -8 42 4 35 15 -7 12 -31 12 -39 0z"/>
<path d="M4437 393 c-2 -5 -1 -19 4 -33 7 -23 7 -23 8 8 1 31 -3 40 -12 25z"/>
<path d="M4408 322 c-10 -2 -18 -11 -18 -21 0 -24 8 -30 30 -24 12 3 17 12 15
25 -5 25 -6 25 -27 20z"/>
<path d="M4460 316 c0 -8 7 -16 15 -20 10 -4 15 1 15 14 0 11 -7 20 -15 20 -8
0 -15 -6 -15 -14z"/>
<path d="M4372 230 c-10 -26 -4 -80 9 -80 4 0 13 16 18 36 8 29 7 40 -5 51
-12 13 -15 12 -22 -7z"/>
<path d="M4405 150 c-3 -6 1 -7 9 -4 18 7 21 14 7 14 -6 0 -13 -4 -16 -10z"/>
</g>
</svg>
